<svg xmlns="http://www.w3.org/2000/svg" viewBox="0 0 960 600" role="img" aria-label="Eastern Clash Shadow Arena thumbnail">
  <defs>
    <linearGradient id="sky" x1="0" y1="0" x2="0" y2="1">
      <stop offset="0" stop-color="#0b1018"/>
      <stop offset="0.58" stop-color="#171519"/>
      <stop offset="1" stop-color="#35221d"/>
    </linearGradient>
    <linearGradient id="floor" x1="0" y1="0" x2="1" y2="1">
      <stop offset="0" stop-color="#2c3338"/>
      <stop offset="1" stop-color="#11151b"/>
    </linearGradient>
    <radialGradient id="moon" cx="50%" cy="50%" r="50%">
      <stop offset="0" stop-color="#ffffff"/>
      <stop offset="0.64" stop-color="#dce8ff"/>
      <stop offset="1" stop-color="#879cc9"/>
    </radialGradient>
    <filter id="glow">
      <feGaussianBlur stdDeviation="8" result="blur"/>
      <feMerge>
        <feMergeNode in="blur"/>
        <feMergeNode in="SourceGraphic"/>
      </feMerge>
    </filter>
  </defs>
  <rect width="960" height="600" fill="url(#sky)"/>
  <circle cx="742" cy="122" r="78" fill="url(#moon)" filter="url(#glow)"/>
  <g fill="#571b1c">
    <rect x="138" y="136" width="34" height="252"/>
    <rect x="788" y="136" width="34" height="252"/>
    <rect x="92" y="116" width="776" height="38"/>
    <rect x="54" y="74" width="852" height="42" fill="#14151a"/>
  </g>
  <rect x="116" y="174" width="728" height="20" fill="#b73a2f"/>
  <path d="M0 390 C250 338 670 338 960 390 L960 600 L0 600 Z" fill="url(#floor)"/>
  <g stroke="#899096" stroke-width="3" opacity="0.42">
    <path d="M108 441 H852"/>
    <path d="M190 390 L90 600"/>
    <path d="M390 368 L360 600"/>
    <path d="M570 368 L600 600"/>
    <path d="M770 390 L870 600"/>
  </g>
  <g transform="translate(300 300)" filter="url(#glow)">
    <ellipse cx="0" cy="158" rx="82" ry="18" fill="#050609" opacity="0.55"/>
    <rect x="-29" y="14" width="58" height="112" rx="12" fill="#162d4a"/>
    <rect x="-38" y="86" width="30" height="86" rx="10" fill="#071018"/>
    <rect x="8" y="86" width="30" height="86" rx="10" fill="#071018"/>
    <circle cx="0" cy="-24" r="32" fill="#c99470"/>
    <path d="M-34 -34 C-18 -72 28 -62 36 -26 C18 -38 -4 -36 -34 -34 Z" fill="#101014"/>
    <rect x="-74" y="28" width="28" height="98" rx="12" fill="#162d4a" transform="rotate(34 -60 77)"/>
    <rect x="48" y="20" width="28" height="110" rx="12" fill="#162d4a" transform="rotate(-38 62 75)"/>
    <rect x="-48" y="42" width="96" height="16" fill="#b3342a"/>
  </g>
  <g transform="translate(666 294)" filter="url(#glow)">
    <ellipse cx="0" cy="164" rx="84" ry="18" fill="#050609" opacity="0.55"/>
    <rect x="-34" y="18" width="68" height="116" rx="12" fill="#3a3b3f"/>
    <rect x="-45" y="94" width="32" height="88" rx="10" fill="#171819"/>
    <rect x="13" y="94" width="32" height="88" rx="10" fill="#171819"/>
    <circle cx="0" cy="-20" r="34" fill="#b98262"/>
    <path d="M-34 -34 C-22 -66 28 -64 38 -26 C10 -36 -8 -34 -34 -34 Z" fill="#34343a"/>
    <rect x="-70" y="28" width="28" height="102" rx="12" fill="#3a3b3f" transform="rotate(36 -56 79)"/>
    <rect x="56" y="-10" width="12" height="196" rx="5" fill="#d6dde3" transform="rotate(-43 62 88)"/>
    <rect x="-44" y="48" width="88" height="16" fill="#946c3e"/>
  </g>
  <path d="M402 330 C462 270 510 270 568 330" fill="none" stroke="#ffe29a" stroke-width="16" stroke-linecap="round" opacity="0.78" filter="url(#glow)"/>
  <text x="50" y="536" fill="#f8f1de" font-family="Bahnschrift, Arial, sans-serif" font-size="54" font-weight="900" letter-spacing="2">EASTERN CLASH</text>
  <text x="54" y="574" fill="#d9ad58" font-family="Bahnschrift, Arial, sans-serif" font-size="28" font-weight="700" letter-spacing="5">SHADOW ARENA</text>
</svg>
