<svg xmlns="http://www.w3.org/2000/svg" viewBox="0 0 960 600" role="img" aria-label="Voxel pagoda RPG thumbnail">
  <rect width="960" height="600" fill="#cdeaf4"/>
  <path d="M0 394c142-44 270-36 386 24 94 48 198 48 312 0 92-40 180-48 262-24v206H0z" fill="#2eb07f"/>
  <ellipse cx="690" cy="442" rx="198" ry="70" fill="#3aa7ce"/>
  <path d="M494 438c70-42 148-42 232 0" fill="none" stroke="#f6c55a" stroke-width="20" stroke-linecap="round"/>
  <g transform="translate(110 138)">
    <rect x="70" y="118" width="40" height="220" fill="#8b2626"/>
    <rect x="236" y="118" width="40" height="220" fill="#8b2626"/>
    <rect x="44" y="134" width="260" height="30" fill="#d22f20"/>
    <rect x="18" y="88" width="312" height="30" fill="#d22f20"/>
    <rect x="74" y="58" width="196" height="30" fill="#f6c55a"/>
  </g>
  <g transform="translate(444 86)">
    <rect x="74" y="278" width="176" height="96" fill="#7f171b"/>
    <rect x="96" y="204" width="132" height="76" fill="#ff8bb7"/>
    <rect x="112" y="138" width="100" height="70" fill="#ff8bb7"/>
    <rect x="128" y="80" width="68" height="62" fill="#ff8bb7"/>
    <path d="M34 286h256l-40-58H74z" fill="#4b2330"/>
    <path d="M54 214h216l-34-50H88z" fill="#4b2330"/>
    <path d="M76 150h168l-28-42H104z" fill="#4b2330"/>
    <path d="M106 92h108l-22-34h-64z" fill="#4b2330"/>
    <rect x="146" y="310" width="34" height="64" fill="#f6c55a"/>
  </g>
  <g transform="translate(344 366)">
    <rect x="0" y="46" width="64" height="72" fill="#813043"/>
    <rect x="10" y="16" width="44" height="38" fill="#e85b57"/>
    <rect x="18" y="0" width="28" height="22" fill="#ffdf93"/>
  </g>
  <g transform="translate(250 414)" fill="#813043">
    <rect x="0" y="28" width="38" height="46"/>
    <rect x="8" y="8" width="22" height="24" fill="#e85b57"/>
  </g>
  <g transform="translate(778 386)" fill="#813043">
    <rect x="0" y="28" width="38" height="46"/>
    <rect x="8" y="8" width="22" height="24" fill="#e85b57"/>
  </g>
  <g fill="#ff8bb7" opacity=".9">
    <rect x="202" y="82" width="20" height="10" rx="5" transform="rotate(24 212 87)"/>
    <rect x="318" y="122" width="18" height="9" rx="4" transform="rotate(-18 327 126)"/>
    <rect x="720" y="104" width="24" height="10" rx="5" transform="rotate(18 732 109)"/>
    <rect x="828" y="220" width="18" height="9" rx="4" transform="rotate(-24 837 224)"/>
    <rect x="120" y="302" width="20" height="10" rx="5" transform="rotate(-12 130 307)"/>
  </g>
</svg>
