<svg xmlns="http://www.w3.org/2000/svg" viewBox="0 0 960 600" role="img" aria-label="Sakura football thumbnail">
  <rect width="960" height="600" fill="#1b2d22"/>
  <rect x="48" y="62" width="864" height="476" rx="12" fill="#2f7d3f" stroke="#f8f4e7" stroke-width="12"/>
  <g opacity=".24">
    <rect x="64" y="74" width="104" height="452" fill="#276f36"/>
    <rect x="272" y="74" width="104" height="452" fill="#276f36"/>
    <rect x="480" y="74" width="104" height="452" fill="#276f36"/>
    <rect x="688" y="74" width="104" height="452" fill="#276f36"/>
  </g>
  <path d="M480 68v464M324 154h312M324 446h312" fill="none" stroke="#f8f4e7" stroke-width="8" stroke-linecap="square"/>
  <circle cx="480" cy="300" r="74" fill="none" stroke="#f8f4e7" stroke-width="8"/>
  <circle cx="480" cy="300" r="12" fill="#f8f4e7"/>
  <g fill="#91372e">
    <rect x="88" y="112" width="28" height="178"/>
    <rect x="156" y="112" width="28" height="178"/>
    <rect x="64" y="148" width="144" height="24"/>
    <rect x="46" y="108" width="180" height="22"/>
  </g>
  <g transform="translate(680 108)">
    <rect x="20" y="96" width="154" height="116" fill="#6b4634"/>
    <rect x="44" y="36" width="106" height="70" fill="#ffb2d4"/>
    <path d="M0 102h196l-28-42H28z" fill="#293746"/>
    <path d="M24 48h148L146 10H50z" fill="#293746"/>
    <rect x="86" y="132" width="28" height="80" fill="#f3c944"/>
  </g>
  <g>
    <circle cx="416" cy="320" r="34" fill="#fff"/>
    <path d="M382 320h68M416 286v68" stroke="#191919" stroke-width="12"/>
  </g>
  <g fill="#2f7df6">
    <circle cx="350" cy="260" r="18"/>
    <circle cx="398" cy="372" r="18"/>
    <circle cx="520" cy="248" r="18"/>
    <circle cx="584" cy="360" r="18"/>
  </g>
  <g fill="#f04c45">
    <circle cx="592" cy="268" r="18"/>
    <circle cx="650" cy="398" r="18"/>
    <circle cx="444" cy="226" r="18"/>
    <circle cx="302" cy="392" r="18"/>
  </g>
  <path d="M86 530c88-42 168-54 240-36 114 30 188 32 288 4 86-24 170-18 260 26" fill="none" stroke="#ff9fc5" stroke-width="18" stroke-linecap="round" opacity=".82"/>
</svg>
